<svg width="16" height="16" viewBox="0 0 16 16" fill="none" xmlns="http://www.w3.org/2000/svg">
<g clip-path="url(#clip0_2200_1610)">
<path fill-rule="evenodd" clip-rule="evenodd" d="M1.77778 16H14.2222C15.2041 16 16 15.2041 16 14.2222V1.77778C16 0.795938 15.2041 0 14.2222 0H1.77778C0.795938 0 0 0.795938 0 1.77778V14.2222C0 15.2041 0.795938 16 1.77778 16Z" fill="#5B483E"/>
<path fill-rule="evenodd" clip-rule="evenodd" d="M13.7777 13.7782H11.4034V9.73424C11.4034 8.62549 10.9821 8.00589 10.1045 8.00589C9.14986 8.00589 8.65107 8.65068 8.65107 9.73424V13.7782H6.36291V6.07451H8.65107V7.1122C8.65107 7.1122 9.33907 5.83915 10.9738 5.83915C12.6079 5.83915 13.7777 6.83698 13.7777 8.9007V13.7782ZM3.63313 5.06577C2.85374 5.06577 2.22217 4.42925 2.22217 3.64421C2.22217 2.85918 2.85374 2.22266 3.63313 2.22266C4.41253 2.22266 5.04372 2.85918 5.04372 3.64421C5.04372 4.42925 4.41253 5.06577 3.63313 5.06577ZM2.45162 13.7782H4.83759V6.07451H2.45162V13.7782Z" fill="white"/>
</g>
<defs>
<clipPath id="clip0_2200_1610">
<rect width="16" height="16" fill="white"/>
</clipPath>
</defs>
</svg>
