<svg width="16" height="16" viewBox="0 0 16 16" fill="none" xmlns="http://www.w3.org/2000/svg">
<g clip-path="url(#clip0_2200_1614)">
<path d="M18.6668 -2.66797H-2.6665V18.6654H18.6668V-2.66797Z" fill="white"/>
<path fill-rule="evenodd" clip-rule="evenodd" d="M5.76588 0.0758863L13.8692 2.24716C14.988 2.54695 15.6519 3.69697 15.3522 4.8158L12.7738 14.4385C12.474 15.5573 11.324 16.2213 10.2052 15.9215L2.10186 13.7501C0.983032 13.4504 0.319067 12.3004 0.61886 11.1815L3.19724 1.5589C3.49703 0.44007 4.64706 -0.223894 5.76588 0.0758863ZM5.49447 1.0888C4.93506 0.938903 4.36005 1.27088 4.21015 1.8303L1.63177 11.453C1.48188 12.0124 1.81386 12.5874 2.37328 12.7373L10.4766 14.9086C11.036 15.0585 11.611 14.7265 11.7608 14.1671L14.3392 4.54439C14.4891 3.98498 14.1572 3.40997 13.5978 3.26008L5.49447 1.0888Z" fill="#5B483E"/>
<path d="M5.32268 3.75984C5.39763 3.48014 5.68513 3.31414 5.96485 3.38909L12.0423 5.01755C12.322 5.09249 12.4881 5.37999 12.4131 5.6597C12.3381 5.93941 12.0506 6.1054 11.7709 6.03045L5.69344 4.402C5.41373 4.32706 5.24774 4.03954 5.32268 3.75984Z" fill="#5B483E"/>
<path d="M4.64397 6.29109C4.71892 6.01139 5.00643 5.84539 5.28613 5.92034L11.3636 7.5488C11.6433 7.62374 11.8092 7.91125 11.7343 8.19095C11.6594 8.47066 11.3719 8.63665 11.0922 8.5617L5.01472 6.93325C4.73502 6.85831 4.56902 6.57079 4.64397 6.29109Z" fill="#5B483E"/>
<path d="M3.96526 8.82234C4.0402 8.54264 4.32772 8.37664 4.60742 8.45159L8.15262 9.40149C8.43232 9.47652 8.59831 9.76392 8.52337 10.0436C8.44842 10.3234 8.16091 10.4894 7.8812 10.4145L4.33601 9.46454C4.05631 9.38952 3.89031 9.10204 3.96526 8.82234Z" fill="#5B483E"/>
</g>
<defs>
<clipPath id="clip0_2200_1614">
<rect width="16" height="16" fill="white"/>
</clipPath>
</defs>
</svg>
