<svg width="16" height="16" viewBox="0 0 16 16" fill="none" xmlns="http://www.w3.org/2000/svg">
<g clip-path="url(#clip0_2200_1620)">
<path d="M16 3.03933C15.4113 3.30067 14.7787 3.47667 14.1147 3.556C14.7927 3.15 15.3133 2.50667 15.558 1.74C14.924 2.116 14.2213 2.38933 13.4733 2.53667C12.8753 1.89867 12.0213 1.5 11.0773 1.5C8.958 1.5 7.40067 3.47733 7.87933 5.53C5.152 5.39333 2.73333 4.08667 1.114 2.10067C0.254 3.576 0.668 5.506 2.12933 6.48333C1.592 6.466 1.08533 6.31867 0.643333 6.07267C0.607333 7.59333 1.69733 9.016 3.276 9.33267C2.814 9.458 2.308 9.48733 1.79333 9.38867C2.21067 10.6927 3.42267 11.6413 4.86 11.668C3.48 12.75 1.74133 13.2333 0 13.028C1.45267 13.9593 3.17867 14.5027 5.032 14.5027C11.1267 14.5027 14.57 9.35533 14.362 4.73867C15.0033 4.27533 15.56 3.69733 16 3.03933Z" fill="#5B483E"/>
</g>
<defs>
<clipPath id="clip0_2200_1620">
<rect width="16" height="16" fill="white"/>
</clipPath>
</defs>
</svg>
